<?xml version="1.0" encoding="UTF-8" standalone="no"?>
<svg width="90px" height="100px" viewBox="0 0 90 100" version="1.1" xmlns="http://www.w3.org/2000/svg" xmlns:xlink="http://www.w3.org/1999/xlink">
    <!-- Generator: Sketch 42 (36781) - http://www.bohemiancoding.com/sketch -->
    <title>Group</title>
    <desc>Created with Sketch.</desc>
    <defs></defs>
    <g id="Page-1" stroke="none" stroke-width="1" fill="none" fill-rule="evenodd">
        <g id="Group" fill-rule="nonzero">
            <path d="M2.0742,61.172 L11.5586,65.9025 C12.6758,66.46109 13.5898,65.76969 13.5898,64.3673 L13.5898,52.4653 C13.5898,51.063 12.67574,49.4575 11.5586,48.9028 L2.0742,44.1723 C0.957,43.61371 0.043,44.30511 0.043,45.7114 L0.043,57.6134 C0.043,59.0157 0.95706,60.6212 2.0742,61.1759 L2.0742,61.172 Z" id="Shape" fill="#F8F8F2"></path>
            <path d="M2.0742,42.277 L11.5586,47.0075 C12.6758,47.56609 13.5898,46.87469 13.5898,45.4723 L13.5898,33.5703 C13.5898,32.168 12.67574,30.5625 11.5586,30.0078 L2.0742,25.2773 C0.957,24.71871 0.043,25.41011 0.043,26.8125 L0.043,38.7145 C0.043,40.1168 0.95706,41.7184 2.0742,42.277 L2.0742,42.277 Z" id="Shape" fill="#F8F8F2"></path>
            <path d="M17.125,87.57 L26.6094,92.3005 C27.7266,92.85909 28.6406,92.16769 28.6406,90.7653 L28.6406,78.8633 C28.6406,77.461 27.72654,75.8555 26.6094,75.3008 L17.125,70.5703 C16.0078,70.01171 15.0938,70.70311 15.0938,72.1094 L15.0938,84.0114 C15.0938,85.4137 16.00786,87.0192 17.125,87.5739 L17.125,87.57 Z" id="Shape" fill="#F8F8F2"></path>
            <path d="M17.125,68.68 L26.6094,73.4105 C27.7266,73.96909 28.6406,73.27769 28.6406,71.8753 L28.6406,59.9733 C28.6406,58.571 27.72654,56.9655 26.6094,56.4108 L17.125,51.6803 C16.0078,51.12171 15.0938,51.81311 15.0938,53.2155 L15.0938,65.1175 C15.0938,66.5198 16.00786,68.1253 17.125,68.68 Z" id="Shape" fill="#F8F8F2"></path>
            <path d="M17.125,49.785 L26.6094,54.5155 C27.7266,55.07409 28.6406,54.38269 28.6406,52.9803 L28.6406,41.0783 C28.6406,39.676 27.72654,38.0705 26.6094,37.5158 L17.125,32.7853 C16.0078,32.22671 15.0938,32.91811 15.0938,34.3244 L15.0938,46.2264 C15.0938,47.6287 16.00786,49.2342 17.125,49.7889 L17.125,49.785 Z" id="Shape" fill="#F8F8F2"></path>
            <path d="M32.176,95.078 L41.6604,99.8085 C42.7776,100.36709 43.6916,99.67569 43.6916,98.2733 L43.6916,86.3713 C43.6916,84.969 42.77754,83.3635 41.6604,82.8088 L32.176,78.0783 C31.0588,77.51971 30.1448,78.21111 30.1448,79.6174 L30.1448,91.5194 C30.1448,92.9217 31.05886,94.5272 32.176,95.0819 L32.176,95.078 Z" id="Shape" fill="#F8F8F2"></path>
            <path d="M32.176,76.184 L41.6604,80.9145 C42.7776,81.47309 43.6916,80.78169 43.6916,79.3754 L43.6916,67.4734 C43.6916,66.0711 42.77754,64.4656 41.6604,63.9109 L32.176,59.1804 C31.0588,58.62181 30.1448,59.31321 30.1448,60.7156 L30.1448,72.6176 C30.1448,74.0199 31.05886,75.6254 32.176,76.1801 L32.176,76.184 Z" id="Shape" fill="#F8F8F2"></path>
            <path d="M32.176,57.293 L41.6604,62.0235 C42.7776,62.58209 43.6916,61.89069 43.6916,60.4883 L43.6916,48.5863 C43.6916,47.184 42.77754,45.5785 41.6604,45.0238 L32.176,40.2933 C31.0588,39.73471 30.1448,40.42611 30.1448,41.8324 L30.1448,53.7344 C30.1448,55.1367 31.05886,56.7422 32.176,57.2969 L32.176,57.293 Z" id="Shape" fill="#F8F8F2"></path>
            <path d="M87.926,61.172 L78.4416,65.9025 C77.3244,66.46109 76.4104,65.76969 76.4104,64.3673 L76.4104,52.4653 C76.4104,51.063 77.32446,49.4575 78.4416,48.9028 L87.926,44.1723 C89.0432,43.61371 89.9572,44.30511 89.9572,45.7114 L89.9572,57.6134 C89.9572,59.0157 89.04314,60.6212 87.926,61.1759 L87.926,61.172 Z" id="Shape" fill="#50FA7B"></path>
            <path d="M87.926,42.277 L78.4416,47.0075 C77.3244,47.56609 76.4104,46.87469 76.4104,45.4723 L76.4104,33.5703 C76.4104,32.168 77.32446,30.5625 78.4416,30.0078 L87.926,25.2773 C89.0432,24.71871 89.9572,25.41402 89.9572,26.8164 L89.9572,38.7184 C89.9572,40.1207 89.04314,41.7262 87.926,42.2809 L87.926,42.277 Z" id="Shape" fill="#50FA7B"></path>
            <path d="M72.875,87.57 L63.3906,92.3005 C62.2734,92.85909 61.3594,92.16769 61.3594,90.7653 L61.3594,78.8633 C61.3594,77.461 62.27346,75.8555 63.3906,75.3008 L72.875,70.5703 C73.9922,70.01171 74.9062,70.70311 74.9062,72.1055 L74.9062,84.0075 C74.9062,85.4098 73.99214,87.0153 72.875,87.57 Z" id="Shape" fill="#50FA7B"></path>
            <path d="M72.875,68.68 L63.3906,73.4105 C62.2734,73.96909 61.3594,73.27769 61.3594,71.8753 L61.3594,59.9733 C61.3594,58.571 62.27346,56.9655 63.3906,56.4108 L72.875,51.6803 C73.9922,51.12171 74.9062,51.81311 74.9062,53.2194 L74.9062,65.1214 C74.9062,66.5237 73.99214,68.1292 72.875,68.6839 L72.875,68.68 Z" id="Shape" fill="#50FA7B"></path>
            <path d="M72.875,49.785 L63.3906,54.5116 C62.2734,55.07019 61.3594,54.37879 61.3594,52.9764 L61.3594,41.0744 C61.3594,39.6721 62.27346,38.0666 63.3906,37.5119 L72.875,32.7814 C73.9922,32.22281 74.9062,32.91812 74.9062,34.3205 L74.9062,46.2225 C74.9062,47.6248 73.99214,49.2264 72.875,49.785 L72.875,49.785 Z" id="Shape" fill="#50FA7B"></path>
            <path d="M57.824,95.078 L48.3396,99.8085 C47.2224,100.36709 46.3084,99.67569 46.3084,98.2733 L46.3084,86.3713 C46.3084,84.969 47.22246,83.3635 48.3396,82.8088 L57.824,78.0783 C58.9412,77.51971 59.8552,78.21111 59.8552,79.6174 L59.8552,91.5194 C59.8552,92.9217 58.94114,94.5272 57.824,95.0819 L57.824,95.078 Z" id="Shape" fill="#50FA7B"></path>
            <path d="M57.824,76.184 L48.3396,80.9145 C47.2224,81.47309 46.3084,80.78169 46.3084,79.3754 L46.3084,67.4734 C46.3084,66.0711 47.22246,64.4656 48.3396,63.9109 L57.824,59.1804 C58.9412,58.62181 59.8552,59.31321 59.8552,60.7156 L59.8552,72.6176 C59.8552,74.0199 58.94114,75.6254 57.824,76.1801 L57.824,76.184 Z" id="Shape" fill="#50FA7B"></path>
            <path d="M57.824,57.293 L48.3396,62.0235 C47.2224,62.58209 46.3084,61.89069 46.3084,60.4883 L46.3084,48.5863 C46.3084,47.184 47.22246,45.5785 48.3396,45.0238 L57.824,40.2933 C58.9412,39.73471 59.8552,40.42611 59.8552,41.8324 L59.8552,53.7344 C59.8552,55.1367 58.94114,56.7383 57.824,57.2969 L57.824,57.293 Z" id="Shape" fill="#50FA7B"></path>
            <path d="M87.926,80.066 L78.4416,84.7926 C77.3244,85.35119 76.4104,84.65979 76.4104,83.2574 L76.4104,71.3554 C76.4104,69.9531 77.32446,68.3476 78.4416,67.7929 L87.926,63.0624 C89.0432,62.50381 89.9572,63.19521 89.9572,64.5976 L89.9572,76.4996 C89.9572,77.9019 89.04314,79.5074 87.926,80.0621 L87.926,80.066 Z" id="Shape" fill="#50FA7B"></path>
            <path d="M31.652,35.383 L41.3747,30.5197 C42.5192,29.94548 42.5192,29.008 41.3747,28.4377 L31.652,23.5744 C30.5075,23.00018 28.6325,23.00018 27.484,23.5744 L17.7613,28.4377 C16.6168,29.01192 16.6168,29.9494 17.7613,30.5197 L27.484,35.383 C28.6285,35.95722 30.5035,35.95722 31.652,35.383 Z" id="Shape" fill="#FF79C6"></path>
            <path d="M16.219,27.668 L25.9417,22.8047 C27.0862,22.23048 27.0862,21.293 25.9417,20.7227 L16.219,15.8633 C15.0745,15.28908 13.1995,15.28908 12.051,15.8633 L2.3283,20.7227 C1.1838,21.29692 1.1838,22.2344 2.3283,22.8047 L12.051,27.668 C13.1955,28.24222 15.0705,28.24222 16.219,27.668 Z" id="Shape" fill="#FF79C6"></path>
            <path d="M62.516,35.383 L72.2387,30.5197 C73.3832,29.94548 73.3832,29.008 72.2387,28.4377 L62.516,23.5744 C61.3715,23.00018 59.4965,23.00018 58.348,23.5744 L48.6253,28.4377 C47.4769,29.01192 47.4769,29.9494 48.6253,30.5197 L58.348,35.383 C59.4925,35.95722 61.3675,35.95722 62.516,35.383 L62.516,35.383 Z" id="Shape" fill="#FF79C6"></path>
            <path d="M47.082,27.668 L56.8047,22.8047 C57.9492,22.23048 57.9492,21.293 56.8047,20.7227 L47.082,15.8633 C45.9375,15.28908 44.0625,15.28908 42.914,15.8633 L33.1913,20.7227 C32.0468,21.29692 32.0468,22.2344 33.1913,22.8047 L42.914,27.668 C44.0624,28.24222 45.9335,28.24222 47.082,27.668 Z" id="Shape" fill="#FF79C6"></path>
            <path d="M31.652,19.953 L41.3747,15.0936 C42.5192,14.51938 42.5192,13.5819 41.3747,13.0116 L31.652,8.1522 C30.5075,7.57798 28.6325,7.57798 27.484,8.1522 L17.7613,13.0116 C16.6168,13.58582 16.6168,14.5233 17.7613,15.0936 L27.484,19.953 C28.6285,20.52722 30.5035,20.52722 31.652,19.953 Z" id="Shape" fill="#FF79C6"></path>
            <path d="M77.949,27.668 L87.6717,22.8047 C88.8162,22.23048 88.8162,21.293 87.6717,20.7227 L77.949,15.8633 C76.8006,15.28908 74.9295,15.28908 73.781,15.8633 L64.0583,20.7227 C62.9138,21.29692 62.9138,22.2344 64.0583,22.8047 L73.781,27.668 C74.9255,28.24222 76.8005,28.24222 77.949,27.668 Z" id="Shape" fill="#FF79C6"></path>
            <path d="M62.516,19.953 L72.2387,15.0936 C73.3832,14.51938 73.3832,13.5819 72.2387,13.0116 L62.516,8.1522 C61.3715,7.57798 59.4965,7.57798 58.348,8.1522 L48.6253,13.0116 C47.4769,13.58582 47.4769,14.5233 48.6253,15.0936 L58.348,19.953 C59.4925,20.52722 61.3675,20.52722 62.516,19.953 L62.516,19.953 Z" id="Shape" fill="#FF79C6"></path>
            <path d="M47.082,12.234 L56.8047,7.3746 C57.9492,6.80038 57.9492,5.8629 56.8047,5.2926 L47.082,0.4332 C45.9375,-0.14102 44.0625,-0.14102 42.914,0.4332 L33.1913,5.2926 C32.0468,5.86682 32.0468,6.8043 33.1913,7.3746 L42.914,12.234 C44.0624,12.80822 45.9335,12.80822 47.082,12.234 Z" id="Shape" fill="#FF79C6"></path>
            <path d="M47.082,43.102 L56.8047,38.2387 C57.9492,37.66448 57.9492,36.727 56.8047,36.1567 L47.082,31.2934 C45.9375,30.71918 44.0625,30.71918 42.914,31.2934 L33.1913,36.1567 C32.0468,36.73092 32.0468,37.6684 33.1913,38.2387 L42.914,43.102 C44.0624,43.67622 45.9335,43.67622 47.082,43.102 Z" id="Shape" fill="#FF79C6"></path>
            <path d="M2.0742,80.066 L11.5586,84.7965 C12.6758,85.35509 13.5898,84.66369 13.5898,83.2613 L13.5898,71.3593 C13.5898,69.957 12.67574,68.3515 11.5586,67.7968 L2.0742,63.0663 C0.957,62.50771 0.043,63.19911 0.043,64.6015 L0.043,76.5035 C0.043,77.9058 0.95706,79.5074 2.0742,80.066 L2.0742,80.066 Z" id="Shape" fill="#F8F8F2"></path>
        </g>
    </g>
</svg>